<svg xmlns="http://www.w3.org/2000/svg" height="80" width="450" ><path fill="#ee2722" d="M394.9912 33.641c-1.386-.74-2.4368-1.2961-3.7452-1.9953-4.4075-2.3468-7.8296-4.199-7.8296-8.1608 0-4.4484 4.2194-6.3496 8.9295-6.3496 6.3128 0 11.1945 2.1016 12.1758 2.4695v-9.3956c-.785-.2413-5.119-1.6886-13.1326-1.6886-12.2862 0-18.8975 7.2532-18.8975 15.5244 0 8.2508 6.7012 12.503 12.278 15.4713 1.2757.6787 2.8171 1.5005 4.0355 2.1465 4.6201 2.4614 8.0137 4.3953 8.0137 8.6678 0 4.8614-4.6978 7.1592-9.3874 7.1592-8.0096 0-12.871-2.9234-13.6968-3.3772l-2.7108 8.308c.7932.4743 7.1796 3.737 16.5915 3.737 11.5176 0 20.1241-6.7462 20.1241-16.7265 0-7.0855-4.8204-11.5707-12.7482-15.7901m-55.8053 1.5618h-6.689V17.6096h6.689c8.8273 0 10.3769 5.72 10.3769 8.7128 0 3.4998-1.7745 8.8804-10.3769 8.8804m10.3483 6.9506v-.3557c2.2978-.8627 10.2746-4.894 10.2746-15.418 0-7.5067-4.8409-17.1395-20.3612-17.1395h-16.935v56.2223h9.9844V43.5681h3.5857c5.1761 0 6.4886 1.8848 9.7186 7.6866l8.03 14.2078h11.5094l-9.2975-16.3993c-3.0583-5.4788-5.4092-6.5909-6.509-6.9098M117.4 35.2028h-6.6849V17.6096H117.4c8.8354 0 10.3727 5.72 10.3727 8.7128 0 3.4998-1.7703 8.8804-10.3727 8.8804m10.3523 6.9506v-.3557c2.3019-.8627 10.2746-4.894 10.2746-15.418 0-7.5067-4.845-17.1395-20.3653-17.1395h-16.939v56.2223h9.9925V43.5681h3.5898c5.168 0 6.4804 1.8848 9.7104 7.6866l8.0341 14.2078h11.5053l-9.2974-16.3993c-3.0501-5.4788-5.4052-6.5909-6.505-6.9098m110.7315 1.0917h8.5738v12.597c-2.1793 1.0262-4.4811 1.705-8.1609 1.705-11.8855 0-17.7854-7.9401-17.7854-20.067 0-11.955 5.9857-20.3243 18.1411-20.3243 4.4607 0 8.9827 1.435 12.736 3.7942l2.813-8.6229c-4.4239-2.31-10.291-3.7983-16.3094-3.7983-17.168 0-28.0928 12.5561-28.0928 29.6383 0 16.1336 9.6654 28.0028 27.7411 28.0028 7.6989 0 14.024-1.9585 19.0406-4.522V35.121h-16.0436zm45.1381-2.2692h21.551v-8.3612h-21.551V17.6014h21.641l2.7311-8.3612h-34.61v56.2223h34.6918v-8.3612h-24.4539zM174.2764 57.547c-10.2092 0-15.5325-7.429-15.5325-20.1527 0-12.8096 5.3233-20.2385 15.5325-20.2385 10.4587 0 15.5285 7.7683 15.5285 20.2385 0 12.7237-5.401 20.1527-15.5285 20.1527m0-49.0182c-16.3216 0-26.2447 11.7874-26.2447 28.8655 0 17.2498 10.013 28.7796 26.2447 28.7796 16.0682 0 26.2407-11.5298 26.2407-28.7796 0-16.9922-9.919-28.8655-26.2407-28.8655m252.1397 50.6904l-1.844 4.796h-.026l-1.8644-4.796h-1.3615v6.2433h.8463v-5.2211h.023l2.0524 5.2211h.5724l2.0566-5.2211h.0229v5.2211h.8708v-6.2433h-1.3533zm-10.982.7687h2.0076v5.4746h.8667V59.988h2.0076v-.7687h-4.8818zM60.1392 34.7735c2.4083-3.1482 4.2808-8.3489 4.2808-13.7009C64.42 10.1684 54.2148 0 37.3044 0 26.9234 0 18.6808 4.1745 13.108 8.9336c2.7312-.8913 6.6113-1.795 11.4645-1.795 12.9772 0 28.195 10.238 35.5667 27.635m-45.5756 5.1597c-2.4082 3.1442-4.2808 8.349-4.2808 13.6968 0 10.9043 10.2052 21.0727 27.1156 21.0727 10.381 0 18.6236-4.1745 24.1922-8.9295-2.727.8913-6.6072 1.7908-11.4603 1.7908-12.9772 0-28.195-10.2338-35.5667-27.6308m20.2058-25.3656c-3.1441-2.4123-8.3489-4.2849-13.6968-4.2849C10.1724 10.2828 0 20.488 0 37.4025c0 10.381 4.1745 18.6195 8.9295 24.1881-.8913-2.723-1.7908-6.6071-1.7908-11.4603 0-12.9731 10.2337-28.1909 27.6307-35.5626m32.7947 10.0048c0 12.9772-10.2338 28.195-27.6349 35.5667 3.1442 2.4082 8.353 4.2848 13.701 4.2848 10.9042 0 21.0726-10.2051 21.0726-27.1155 0-10.385-4.1786-18.6277-8.9295-24.1964.8872 2.723 1.7908 6.6072 1.7908 11.4604"/></svg>